REM DIRINDEX 1\5,1\2\6,1\2\7,1\3\8,1\3\9,1\3\10,1\3\11,1\4\12,1\4\13,1\4\14
REM DIRNAME cjc042,folder01,folder02,folder03,folder04,folder05,folder06,folder07,folder08,folder09,folder10,folder11,folder12,folder13
TITLE ""
FILE "4Q_h_098-114.mp3" MP3
  TRACK 01 AUDIO
    TITLE "12:cjc042_0298"
    INDEX 01 00:00:00
  TRACK 02 AUDIO
    TITLE "0:"
    INDEX 01 00:04:29
  TRACK 03 AUDIO
    TITLE "13:cjc042_0299"
    INDEX 01 00:05:05
  TRACK 04 AUDIO
    TITLE "0:"
    INDEX 01 00:09:45
  TRACK 05 AUDIO
    TITLE "14:cjc042_0300"
    INDEX 01 00:10:19
  TRACK 06 AUDIO
    TITLE "0:"
    INDEX 01 00:15:21
  TRACK 07 AUDIO
    TITLE "12:cjc042_0301"
    INDEX 01 00:15:66
  TRACK 08 AUDIO
    TITLE "0:"
    INDEX 01 00:18:68
  TRACK 09 AUDIO
    TITLE "13:cjc042_0302"
    INDEX 01 00:19:44
  TRACK 10 AUDIO
    TITLE "0:"
    INDEX 01 00:22:48
  TRACK 11 AUDIO
    TITLE "14:cjc042_0303"
    INDEX 01 00:23:26
  TRACK 12 AUDIO
    TITLE "0:"
    INDEX 01 00:25:29
  TRACK 13 AUDIO
    TITLE "12:cjc042_0304"
    INDEX 01 00:26:05
  TRACK 14 AUDIO
    TITLE "0:"
    INDEX 01 00:29:03
  TRACK 15 AUDIO
    TITLE "13:cjc042_0305"
    INDEX 01 00:29:54
  TRACK 16 AUDIO
    TITLE "0:"
    INDEX 01 00:32:50
  TRACK 17 AUDIO
    TITLE "14:cjc042_0306"
    INDEX 01 00:33:32
  TRACK 18 AUDIO
    TITLE "0:"
    INDEX 01 00:36:72
  TRACK 19 AUDIO
    TITLE "12:cjc042_0307"
    INDEX 01 00:37:46
  TRACK 20 AUDIO
    TITLE "0:"
    INDEX 01 00:41:53
  TRACK 21 AUDIO
    TITLE "13:cjc042_0308"
    INDEX 01 00:42:31
  TRACK 22 AUDIO
    TITLE "0:"
    INDEX 01 00:46:39
  TRACK 23 AUDIO
    TITLE "14:cjc042_0309"
    INDEX 01 00:47:13
  TRACK 24 AUDIO
    TITLE "0:"
    INDEX 01 00:52:39
  TRACK 25 AUDIO
    TITLE "12:cjc042_0310"
    INDEX 01 00:53:19
  TRACK 26 AUDIO
    TITLE "0:"
    INDEX 01 00:55:51
  TRACK 27 AUDIO
    TITLE "13:cjc042_0311"
    INDEX 01 00:56:33
  TRACK 28 AUDIO
    TITLE "0:"
    INDEX 01 00:58:66
  TRACK 29 AUDIO
    TITLE "14:cjc042_0312"
    INDEX 01 00:59:45
  TRACK 30 AUDIO
    TITLE "0:"
    INDEX 01 01:01:62
  TRACK 31 AUDIO
    TITLE "12:cjc042_0313"
    INDEX 01 01:02:38
  TRACK 32 AUDIO
    TITLE "0:"
    INDEX 01 01:06:24
  TRACK 33 AUDIO
    TITLE "13:cjc042_0314"
    INDEX 01 01:07:02
  TRACK 34 AUDIO
    TITLE "0:"
    INDEX 01 01:10:63
  TRACK 35 AUDIO
    TITLE "14:cjc042_0315"
    INDEX 01 01:11:43
  TRACK 36 AUDIO
    TITLE "0:"
    INDEX 01 01:15:17
  TRACK 37 AUDIO
    TITLE "12:cjc042_0316"
    INDEX 01 01:15:74
  TRACK 38 AUDIO
    TITLE "0:"
    INDEX 01 01:18:66
  TRACK 39 AUDIO
    TITLE "13:cjc042_0317"
    INDEX 01 01:19:46
  TRACK 40 AUDIO
    TITLE "0:"
    INDEX 01 01:22:41
  TRACK 41 AUDIO
    TITLE "14:cjc042_0318"
    INDEX 01 01:23:16
  TRACK 42 AUDIO
    TITLE "0:"
    INDEX 01 01:26:17
  TRACK 43 AUDIO
    TITLE "12:cjc042_0319"
    INDEX 01 01:26:68
  TRACK 44 AUDIO
    TITLE "0:"
    INDEX 01 01:29:62
  TRACK 45 AUDIO
    TITLE "13:cjc042_0320"
    INDEX 01 01:30:38
  TRACK 46 AUDIO
    TITLE "0:"
    INDEX 01 01:33:31
  TRACK 47 AUDIO
    TITLE "14:cjc042_0321"
    INDEX 01 01:34:08
  TRACK 48 AUDIO
    TITLE "0:"
    INDEX 01 01:36:74
  TRACK 49 AUDIO
    TITLE "12:cjc042_0322"
    INDEX 01 01:37:54
  TRACK 50 AUDIO
    TITLE "0:"
    INDEX 01 01:42:14
  TRACK 51 AUDIO
    TITLE "13:cjc042_0323"
    INDEX 01 01:42:69
  TRACK 52 AUDIO
    TITLE "0:"
    INDEX 01 01:47:29
  TRACK 53 AUDIO
    TITLE "14:cjc042_0324"
    INDEX 01 01:48:05
  TRACK 54 AUDIO
    TITLE "0:"
    INDEX 01 01:51:60
  TRACK 55 AUDIO
    TITLE "12:cjc042_0325"
    INDEX 01 01:52:34
  TRACK 56 AUDIO
    TITLE "0:"
    INDEX 01 01:54:33
  TRACK 57 AUDIO
    TITLE "13:cjc042_0326"
    INDEX 01 01:55:11
  TRACK 58 AUDIO
    TITLE "0:"
    INDEX 01 01:57:09
  TRACK 59 AUDIO
    TITLE "14:cjc042_0327"
    INDEX 01 01:57:62
  TRACK 60 AUDIO
    TITLE "0:"
    INDEX 01 02:00:47
  TRACK 61 AUDIO
    TITLE "12:cjc042_0328"
    INDEX 01 02:01:23
  TRACK 62 AUDIO
    TITLE "0:"
    INDEX 01 02:04:72
  TRACK 63 AUDIO
    TITLE "13:cjc042_0329"
    INDEX 01 02:05:48
  TRACK 64 AUDIO
    TITLE "0:"
    INDEX 01 02:09:21
  TRACK 65 AUDIO
    TITLE "14:cjc042_0330"
    INDEX 01 02:10:00
  TRACK 66 AUDIO
    TITLE "0:"
    INDEX 01 02:13:03
  TRACK 67 AUDIO
    TITLE "12:cjc042_0331"
    INDEX 01 02:13:48
  TRACK 68 AUDIO
    TITLE "0:"
    INDEX 01 02:16:03
  TRACK 69 AUDIO
    TITLE "13:cjc042_0332"
    INDEX 01 02:16:50
  TRACK 70 AUDIO
    TITLE "0:"
    INDEX 01 02:19:05
  TRACK 71 AUDIO
    TITLE "14:cjc042_0333"
    INDEX 01 02:19:56
  TRACK 72 AUDIO
    TITLE "0:"
    INDEX 01 02:22:62
  TRACK 73 AUDIO
    TITLE "12:cjc042_0334"
    INDEX 01 02:23:36
  TRACK 74 AUDIO
    TITLE "0:"
    INDEX 01 02:26:33
  TRACK 75 AUDIO
    TITLE "13:cjc042_0335"
    INDEX 01 02:27:05
  TRACK 76 AUDIO
    TITLE "0:"
    INDEX 01 02:29:74
  TRACK 77 AUDIO
    TITLE "14:cjc042_0336"
    INDEX 01 02:30:52
  TRACK 78 AUDIO
    TITLE "0:"
    INDEX 01 02:34:11
  TRACK 79 AUDIO
    TITLE "12:cjc042_0337"
    INDEX 01 02:34:67
  TRACK 80 AUDIO
    TITLE "0:"
    INDEX 01 02:37:62
  TRACK 81 AUDIO
    TITLE "13:cjc042_0338"
    INDEX 01 02:38:40
  TRACK 82 AUDIO
    TITLE "0:"
    INDEX 01 02:41:36
  TRACK 83 AUDIO
    TITLE "14:cjc042_0339"
    INDEX 01 02:42:12
  TRACK 84 AUDIO
    TITLE "0:"
    INDEX 01 02:44:62
  TRACK 85 AUDIO
    TITLE "12:cjc042_0340"
    INDEX 01 02:45:38
  TRACK 86 AUDIO
    TITLE "0:"
    INDEX 01 02:48:38
  TRACK 87 AUDIO
    TITLE "13:cjc042_0341"
    INDEX 01 02:49:20
  TRACK 88 AUDIO
    TITLE "0:"
    INDEX 01 02:52:20
  TRACK 89 AUDIO
    TITLE "14:cjc042_0342"
    INDEX 01 02:52:73
  TRACK 90 AUDIO
    TITLE "0:"
    INDEX 01 02:55:27
  TRACK 91 AUDIO
    TITLE "12:cjc042_0343"
    INDEX 01 02:56:02
  TRACK 92 AUDIO
    TITLE "0:"
    INDEX 01 02:58:62
  TRACK 93 AUDIO
    TITLE "13:cjc042_0344"
    INDEX 01 02:59:36
  TRACK 94 AUDIO
    TITLE "0:"
    INDEX 01 03:02:23
  TRACK 95 AUDIO
    TITLE "14:cjc042_0345"
    INDEX 01 03:02:74
  TRACK 96 AUDIO
    TITLE "0:"
    INDEX 01 03:05:48
  TRACK 97 AUDIO
    TITLE "12:cjc042_0346"
    INDEX 01 03:06:18
  TRACK 98 AUDIO
    TITLE "0:"
    INDEX 01 03:08:10
  TRACK 99 AUDIO
    TITLE "13:cjc042_0347"
    INDEX 01 03:08:55
  TRACK 100 AUDIO
    TITLE "0:"
    INDEX 01 03:10:44
  TRACK 101 AUDIO
    TITLE "14:cjc042_0348"
    INDEX 01 03:11:18
  TRACK 102 AUDIO
    TITLE "0:"
    INDEX 01 03:13:66
